<svg width="19" height="30" viewBox="0 0 19 30" fill="none" xmlns="http://www.w3.org/2000/svg">
<path d="M18.4845 1.56033C18.4845 1.34966 18.3993 1.14761 18.2477 0.998644C18.0961 0.849675 17.8905 0.765985 17.6761 0.765985H13.6343C11.599 0.66636 9.60635 1.36237 8.09168 2.70193C6.577 4.0415 5.66345 5.91572 5.55063 7.9151V12.2046H1.5088C1.29441 12.2046 1.0888 12.2883 0.937204 12.4372C0.785606 12.5862 0.700439 12.7882 0.700439 12.9989V17.1295C0.700439 17.3402 0.785606 17.5422 0.937204 17.6912C1.0888 17.8402 1.29441 17.9239 1.5088 17.9239H5.55063V28.5681C5.55063 28.7788 5.6358 28.9808 5.78739 29.1298C5.93899 29.2787 6.1446 29.3624 6.35899 29.3624H11.2092C11.4236 29.3624 11.6292 29.2787 11.7808 29.1298C11.9324 28.9808 12.0175 28.7788 12.0175 28.5681V17.9239H16.2534C16.4331 17.9264 16.6086 17.87 16.7521 17.7635C16.8956 17.6571 16.9989 17.5066 17.0456 17.336L18.2096 13.2054C18.2418 13.0881 18.2461 12.965 18.2223 12.8457C18.1984 12.7265 18.147 12.6142 18.0721 12.5175C17.9971 12.4208 17.9006 12.3423 17.7899 12.2881C17.6792 12.2338 17.5573 12.2052 17.4336 12.2046H12.0175V7.9151C12.0578 7.52186 12.2457 7.15747 12.5446 6.89308C12.8436 6.62869 13.2321 6.48329 13.6343 6.48527H17.6761C17.8905 6.48527 18.0961 6.40158 18.2477 6.25262C18.3993 6.10365 18.4845 5.9016 18.4845 5.69093V1.56033Z" fill="white"/>
</svg>
