<svg width="31" height="30" viewBox="0 0 31 30" fill="none" xmlns="http://www.w3.org/2000/svg">
<path fill-rule="evenodd" clip-rule="evenodd" d="M9.63038 0.506682C11.2 0.435986 11.7003 0.419922 15.6971 0.419922C19.6947 0.419922 20.1942 0.436787 21.763 0.506682C23.3302 0.576576 24.4004 0.821595 25.3364 1.17907C26.3182 1.54229 27.2075 2.1114 27.9426 2.8468C28.6911 3.56905 29.2703 4.44304 29.6398 5.40782C30.0035 6.32764 30.2521 7.37921 30.3241 8.91839C30.396 10.4608 30.4124 10.9524 30.4124 14.8799C30.4124 18.8074 30.3952 19.299 30.3241 20.8415C30.2529 22.3806 30.0035 23.4322 29.6398 24.352C29.2638 25.3024 28.7601 26.1097 27.9426 26.913C27.2076 27.6485 26.3182 28.2177 25.3364 28.5808C24.4004 28.9382 23.3302 29.1825 21.764 29.2532C20.1942 29.3239 19.6939 29.3399 15.6971 29.3399C11.7003 29.3399 11.2 29.3231 9.63038 29.2532C8.06404 29.1833 6.99391 28.9382 6.05787 28.5808C5.09074 28.2113 4.26915 27.7163 3.45164 26.913C2.70313 26.1908 2.12394 25.3168 1.75448 24.352C1.3907 23.4322 1.14217 22.3806 1.07022 20.8415C0.998281 19.299 0.981934 18.8082 0.981934 14.8799C0.981934 10.9516 0.999097 10.4608 1.07022 8.9192C1.14135 7.37921 1.3907 6.32764 1.75448 5.40782C2.12411 4.4431 2.70327 3.56915 3.45164 2.8468C4.18663 2.11127 5.07604 1.54212 6.05787 1.17907C6.99391 0.821595 8.06404 0.577378 9.63038 0.506682ZM21.6437 3.10948C20.092 3.04039 19.6261 3.02513 15.6971 3.02513C11.7682 3.02513 11.3022 3.04039 9.75057 3.10948C8.31583 3.17375 7.53674 3.40912 7.01843 3.60755C6.33173 3.86944 5.84122 4.18273 5.32618 4.68883C4.81198 5.19493 4.49233 5.67694 4.22582 6.35173C4.02389 6.86106 3.78436 7.62663 3.71896 9.03648C3.64865 10.5612 3.63312 11.0191 3.63312 14.8799C3.63312 18.7408 3.64865 19.1986 3.71896 20.7234C3.78436 22.1332 4.02389 22.8988 4.22582 23.4082C4.46156 24.0363 4.83757 24.6044 5.32618 25.0711C5.80095 25.5512 6.37922 25.9207 7.01843 26.1523C7.53674 26.3508 8.31583 26.5861 9.75057 26.6504C11.3022 26.7195 11.7674 26.7348 15.6971 26.7348C19.6269 26.7348 20.092 26.7195 21.6437 26.6504C23.0784 26.5861 23.8575 26.3508 24.3759 26.1523C25.0626 25.8904 25.5531 25.5772 26.0682 25.0711C26.5567 24.6046 26.9327 24.0363 27.1685 23.4082C27.3705 22.8988 27.6099 22.1332 27.6753 20.7234C27.7457 19.1986 27.7612 18.7408 27.7612 14.8799C27.7612 11.0191 27.7457 10.5612 27.6753 9.03648C27.6099 7.62663 27.3705 6.86106 27.1685 6.35173C26.902 5.67694 26.5832 5.19493 26.0682 4.68883C25.5531 4.18355 25.0626 3.86944 24.3759 3.60755C23.8575 3.40912 23.0784 3.17375 21.6437 3.10948ZM13.8183 19.3374C14.414 19.58 15.0523 19.7047 15.6971 19.7047C16.9994 19.7047 18.2482 19.1964 19.169 18.2916C20.0899 17.3868 20.6072 16.1595 20.6072 14.8799C20.6072 13.6004 20.0899 12.3731 19.169 11.4683C18.2482 10.5634 16.9994 10.0551 15.6971 10.0551C15.0523 10.0551 14.414 10.1799 13.8183 10.4224C13.2224 10.6648 12.6812 11.0202 12.2253 11.4683C11.7694 11.9163 11.4077 12.4482 11.161 13.0335C10.9142 13.6189 10.7872 14.2463 10.7872 14.8799C10.7872 15.5135 10.9142 16.141 11.161 16.7263C11.4077 17.3117 11.7694 17.8436 12.2253 18.2916C12.6812 18.7396 13.2224 19.095 13.8183 19.3374ZM10.3489 9.62439C11.7674 8.23054 13.6912 7.44747 15.6971 7.44747C17.7032 7.44747 19.627 8.23054 21.0455 9.62439C22.4639 11.0182 23.2608 12.9088 23.2608 14.8799C23.2608 16.8511 22.4639 18.7415 21.0455 20.1355C19.627 21.5293 17.7032 22.3124 15.6971 22.3124C13.6912 22.3124 11.7674 21.5293 10.3489 20.1355C8.93045 18.7415 8.13357 16.8511 8.13357 14.8799C8.13357 12.9088 8.93045 11.0182 10.3489 9.62439ZM24.9379 8.55483C25.2731 8.22534 25.4615 7.77848 25.4615 7.31252C25.4615 6.84656 25.2731 6.39969 24.9379 6.07021C24.6025 5.74073 24.1478 5.55563 23.6736 5.55563C23.1995 5.55563 22.7447 5.74073 22.4094 6.07021C22.074 6.39969 21.8857 6.84656 21.8857 7.31252C21.8857 7.77848 22.074 8.22534 22.4094 8.55483C22.7447 8.88431 23.1995 9.06941 23.6736 9.06941C24.1478 9.06941 24.6025 8.88431 24.9379 8.55483Z" fill="white"/>
</svg>
