<svg width="47" height="36" viewBox="0 0 47 36" fill="none" xmlns="http://www.w3.org/2000/svg">
<g filter="url(#filter0_d_1_347)">
<path d="M40.4699 5.76598C40.2817 5.02705 39.8984 4.35001 39.3586 3.80324C38.8189 3.25648 38.1419 2.85935 37.396 2.65199C34.6707 1.99805 23.7695 1.99805 23.7695 1.99805C23.7695 1.99805 12.8683 1.99805 10.143 2.71427C9.39711 2.92163 8.72011 3.31876 8.18039 3.86552C7.64067 4.41229 7.25734 5.08933 7.06912 5.82826C6.57035 8.54609 6.32637 11.3032 6.34026 14.0648C6.32248 16.8472 6.56647 19.6253 7.06912 22.3636C7.27662 23.0796 7.66854 23.7309 8.207 24.2545C8.74547 24.7782 9.41228 25.1566 10.143 25.353C12.8683 26.0692 23.7695 26.0692 23.7695 26.0692C23.7695 26.0692 34.6707 26.0692 37.396 25.353C38.1419 25.1457 38.8189 24.7485 39.3586 24.2018C39.8984 23.655 40.2817 22.978 40.4699 22.239C40.9648 19.5417 41.2088 16.8056 41.1988 14.0648C41.2165 11.2824 40.9726 8.50428 40.4699 5.76598Z" stroke="white" stroke-width="3" stroke-linecap="round" stroke-linejoin="round"/>
<path d="M20.203 19.1559L29.3137 14.0645L20.203 8.97314V19.1559Z" stroke="white" stroke-width="3" stroke-linecap="round" stroke-linejoin="round"/>
</g>
<defs>
<filter id="filter0_d_1_347" x="0.839355" y="0.498047" width="45.8604" height="35.0713" filterUnits="userSpaceOnUse" color-interpolation-filters="sRGB">
<feFlood flood-opacity="0" result="BackgroundImageFix"/>
<feColorMatrix in="SourceAlpha" type="matrix" values="0 0 0 0 0 0 0 0 0 0 0 0 0 0 0 0 0 0 127 0" result="hardAlpha"/>
<feOffset dy="4"/>
<feGaussianBlur stdDeviation="2"/>
<feComposite in2="hardAlpha" operator="out"/>
<feColorMatrix type="matrix" values="0 0 0 0 0 0 0 0 0 0 0 0 0 0 0 0 0 0 0.25 0"/>
<feBlend mode="normal" in2="BackgroundImageFix" result="effect1_dropShadow_1_347"/>
<feBlend mode="normal" in="SourceGraphic" in2="effect1_dropShadow_1_347" result="shape"/>
</filter>
</defs>
</svg>
